<?xml version="1.0" encoding="utf-8"?>
<!-- Generator: Adobe Illustrator 24.0.3, SVG Export Plug-In . SVG Version: 6.00 Build 0)  -->
<svg version="1.1" id="Layer_1" xmlns="http://www.w3.org/2000/svg" xmlns:xlink="http://www.w3.org/1999/xlink" x="0px" y="0px"
	 viewBox="0 0 1230 142" style="enable-background:new 0 0 1230 142;" xml:space="preserve">
<style type="text/css">
	.st0{fill:#CC6A19;}
	.st1{fill:#DAE4E5;}
	.st2{fill:none;stroke:#000000;stroke-miterlimit:10;}
	.st3{fill:none;stroke:#F7C331;stroke-linecap:round;stroke-linejoin:round;stroke-miterlimit:10;}
	.st4{fill:#737F82;}
	.st5{fill:#EFEAE1;}
	.st6{fill:#1A3F49;}
	.st7{fill:none;stroke:#CC6A19;stroke-linecap:round;stroke-miterlimit:10;}
	.st8{fill:none;stroke:#1A3F49;stroke-linecap:round;stroke-linejoin:round;stroke-miterlimit:10;}
</style>
<g>
	<path class="st0" d="M674.7,66.32c-9.32-13.61-27.43-24.65-44.11-27.32c-8.86-1.42-13.75-2.37-23.3-2.37
		c-30.99,0-49.7,10.41-55.92,29.6c-0.02,0.05-11.92,2.06-11.92,2.06c-18.45,3.01-21.27,7.65-21.33,18.63l0.16,10.67
		c0.25,4.13-0.57,9.89,1.16,9.76l19.79,0c1.1-8.51,7.68-20.43,22.42-20.56c14.45-0.13,21.85,11.64,22.42,20.15h73.98
		c1.1-10.56,8.91-20.02,22.07-20.02c13.57,0,21.79,11.51,21.96,20.43h8.54c7.33-0.28,12.68-1.93,12.68-15.08
		c0-9.05-2.52-17.61-16.86-22.61C699.33,67.17,690.81,67.29,674.7,66.32z"/>
	<path class="st1" d="M666.34,63.11c-6.21-9.46-28.57-22.65-51.87-22.34c-1.46,0.02-2.66,1.16-2.66,2.63v23.12
		c0,0.07,39.73,0.45,52.34,0.59C666.82,67.14,667.8,65.34,666.34,63.11z"/>
	<path class="st1" d="M568.44,66.43c5.15,0.09,23.32,0.2,39.2,0.24l0.1-23.99c0-1-0.83-2.19-1.83-2.17
		c-17.07,0.36-37.22,2.82-42.23,18.36C562.58,62.27,564.58,66.37,568.44,66.43z"/>
	<path class="st2" d="M601.53,102.01"/>
	<path class="st3" d="M654.86,102.57c0,0-56.57-0.02-56.32,0.15"/>
	<path class="st3" d="M615.16,97.81c-0.18-0.19,40.94-0.18,40.94-0.18c2.64-7.42,8.4-12.35,13.33-13.17"/>
	<circle class="st4" cx="680.05" cy="109" r="18.87"/>
	<circle class="st5" cx="680.05" cy="109" r="9.81"/>
	<circle class="st4" cx="561.66" cy="109" r="18.87"/>
	<circle class="st4" cx="561.66" cy="109" r="18.87"/>
	<circle class="st5" cx="562.09" cy="109" r="9.81"/>
	<path class="st3" d="M575.27,72.53h-5.35c0,0-2.06,0-2.06,1.64"/>
	<path class="st3" d="M622.15,72.53h-5.35c0,0-2.06,0-2.06,1.64"/>
</g>
<g>
	<path class="st4" d="M1164.7,66.32c-9.32-13.61-27.43-24.65-44.11-27.32c-8.86-1.42-13.75-2.37-23.3-2.37
		c-30.99,0-49.7,10.41-55.92,29.6c-0.02,0.05-11.92,2.06-11.92,2.06c-18.45,3.01-21.27,7.65-21.33,18.63l0.16,10.67
		c0.25,4.13-0.57,9.89,1.16,9.76l19.79,0c1.1-8.51,7.68-20.43,22.42-20.56c14.45-0.13,21.85,11.64,22.42,20.15h73.98
		c1.1-10.56,8.91-20.02,22.07-20.02c13.57,0,21.79,11.51,21.96,20.43h8.54c7.33-0.28,12.68-1.93,12.68-15.08
		c0-9.05-2.52-17.61-16.86-22.61C1189.33,67.17,1180.81,67.29,1164.7,66.32z"/>
	<path class="st1" d="M1156.34,63.11c-6.21-9.46-28.57-22.65-51.87-22.34c-1.46,0.02-2.66,1.16-2.66,2.63v23.12
		c0,0.07,39.73,0.45,52.34,0.59C1156.82,67.14,1157.8,65.34,1156.34,63.11z"/>
	<path class="st1" d="M1058.44,66.43c5.15,0.09,23.32,0.2,39.2,0.24l0.1-23.99c0-1-0.83-2.19-1.83-2.17
		c-17.07,0.36-37.22,2.82-42.23,18.36C1052.58,62.27,1054.58,66.37,1058.44,66.43z"/>
	<path class="st2" d="M1091.53,102.01"/>
	<path class="st3" d="M1144.86,102.57c0,0-56.57-0.02-56.32,0.15"/>
	<path class="st3" d="M1105.16,97.81c-0.18-0.19,40.94-0.18,40.94-0.18c2.64-7.42,8.4-12.35,13.33-13.17"/>
	<circle class="st6" cx="1170.05" cy="109" r="18.87"/>
	<circle class="st5" cx="1170.05" cy="109" r="9.81"/>
	<circle class="st4" cx="1051.66" cy="109" r="18.87"/>
	<circle class="st6" cx="1051.66" cy="109" r="18.87"/>
	<circle class="st5" cx="1052.09" cy="109" r="9.81"/>
	<path class="st3" d="M1065.27,72.53h-5.35c0,0-2.06,0-2.06,1.64"/>
	<path class="st3" d="M1112.15,72.53h-5.35c0,0-2.06,0-2.06,1.64"/>
</g>
<g>
	<path class="st6" d="M443.7,66.32c-9.32-13.61-27.43-24.65-44.11-27.32c-8.86-1.42-13.75-2.37-23.3-2.37
		c-30.99,0-49.7,10.41-55.92,29.6c-0.02,0.05-11.92,2.06-11.92,2.06c-18.45,3.01-21.27,7.65-21.33,18.63l0.16,10.67
		c0.25,4.13-0.57,9.89,1.16,9.76l19.79,0c1.1-8.51,7.68-20.43,22.42-20.56c14.45-0.13,21.85,11.64,22.42,20.15h73.98
		c1.1-10.56,8.91-20.02,22.07-20.02c13.57,0,21.79,11.51,21.96,20.43h8.54c7.33-0.28,12.68-1.93,12.68-15.08
		c0-9.05-2.52-17.61-16.86-22.61C468.33,67.17,459.81,67.29,443.7,66.32z"/>
	<path class="st1" d="M435.34,63.11c-6.21-9.46-28.57-22.65-51.87-22.34c-1.46,0.02-2.66,1.16-2.66,2.63v23.12
		c0,0.07,39.73,0.45,52.34,0.59C435.82,67.14,436.8,65.34,435.34,63.11z"/>
	<path class="st1" d="M337.44,66.43c5.15,0.09,23.32,0.2,39.2,0.24l0.1-23.99c0-1-0.83-2.19-1.83-2.17
		c-17.07,0.36-37.22,2.82-42.23,18.36C331.58,62.27,333.58,66.37,337.44,66.43z"/>
	<path class="st2" d="M370.53,102.01"/>
	<path class="st3" d="M423.86,102.57c0,0-56.57-0.02-56.32,0.15"/>
	<path class="st3" d="M384.16,97.81c-0.18-0.19,40.94-0.18,40.94-0.18c2.64-7.42,8.4-12.35,13.33-13.17"/>
	<circle class="st4" cx="449.05" cy="109" r="18.87"/>
	<circle class="st5" cx="449.05" cy="109" r="9.81"/>
	<circle class="st4" cx="330.66" cy="109" r="18.87"/>
	<circle class="st4" cx="330.66" cy="109" r="18.87"/>
	<circle class="st5" cx="331.09" cy="109" r="9.81"/>
	<path class="st3" d="M344.27,72.53h-5.35c0,0-2.06,0-2.06,1.64"/>
	<path class="st3" d="M391.15,72.53h-5.35c0,0-2.06,0-2.06,1.64"/>
</g>
<g>
	<path class="st6" d="M928.98,59.28c-9.32-13.61-14.57-30.32-31.25-32.99c-8.86-1.42-35.67-1.96-45.23-1.96
		c-8.22,0-7.4,16.45-8.22,35.36c0,0.05-87.58,0.41-87.58,0.41c-12.34,0.41-10.63,15.87-10.69,26.86l0.16,10.67
		c0.25,4.13-0.57,9.89,1.16,9.76h16.91c-0.13-9.87,6.45-26.32,25.3-26.32c17.74,0,26.37,15.21,25.71,25.9h94.95
		c-0.13-11.92,7.27-25.78,26.18-25.78c16.04,0,24.67,15.5,24.01,26.19h11.83c2.4,0,10.65-0.66,11.45-14.67
		c0.82-14.52,1.4-26.5-14.41-29.57C955.7,60.51,947.33,59.59,928.98,59.28z"/>
	<circle class="st4" cx="935.2" cy="106.12" r="21.76"/>
	<circle class="st5" cx="935.2" cy="106.12" r="11.3"/>
	<circle class="st4" cx="789.83" cy="106.12" r="21.76"/>
	<circle class="st4" cx="789.83" cy="106.12" r="21.76"/>
	<circle class="st5" cx="790.33" cy="106.12" r="11.3"/>
	<path class="st1" d="M916.23,59.79c3.08,0.01,5.01-3.34,3.44-6c-6.03-10.18-11.16-22.16-23.13-24.08
		c-4.72-0.76-14.24-1.22-20.92-1.47c-1.85-0.07-3.38,1.41-3.38,3.26v28.12L916.23,59.79z"/>
	<path class="st1" d="M853.32,28.03c-4.52,0-4.4,13.02-4.76,27.45c-0.06,2.22,1.73,4.06,3.95,4.07l15.61,0.07V31.29
		c0-1.8-1.46-3.26-3.26-3.26L853.32,28.03z"/>
	<path class="st7" d="M902.07,102.06c0,0-77.37-0.02-77.13,0.15"/>
	<path class="st7" d="M857.43,96.89c-0.18-0.19,46.29-0.18,46.29-0.18c1.41-7.83,7.17-17.29,15.8-20.57"/>
	<path class="st7" d="M881.28,67.09h-5.35c0,0-2.06,0-2.06,1.64"/>
</g>
<g>
	<path class="st0" d="M206.02,59.28c-9.32-13.61-14.57-30.32-31.25-32.99c-8.86-1.42-35.67-1.96-45.23-1.96
		c-8.22,0-7.4,16.45-8.22,35.36c0,0.05-87.58,0.41-87.58,0.41c-12.34,0.41-10.63,15.87-10.69,26.86l0.16,10.67
		c0.25,4.13-0.57,9.89,1.16,9.76h16.91c-0.13-9.87,6.45-26.32,25.3-26.32c17.74,0,26.37,15.21,25.71,25.9h94.95
		c-0.13-11.92,7.27-25.78,26.18-25.78c16.04,0,24.67,15.5,24.01,26.19h11.83c2.4,0,10.65-0.66,11.45-14.67
		c0.82-14.52,1.4-26.5-14.41-29.57C232.75,60.51,224.37,59.59,206.02,59.28z"/>
	<circle class="st6" cx="212.25" cy="106.12" r="21.76"/>
	<circle class="st5" cx="212.25" cy="106.12" r="11.3"/>
	<circle class="st4" cx="66.88" cy="106.12" r="21.76"/>
	<circle class="st6" cx="66.88" cy="106.12" r="21.76"/>
	<circle class="st5" cx="67.37" cy="106.12" r="11.3"/>
	<path class="st1" d="M193.27,59.79c3.08,0.01,5.01-3.34,3.44-6c-6.03-10.18-11.16-22.16-23.13-24.08
		c-4.72-0.76-14.24-1.22-20.92-1.47c-1.85-0.07-3.38,1.41-3.38,3.26v28.12L193.27,59.79z"/>
	<path class="st1" d="M130.37,28.03c-4.52,0-4.4,13.02-4.76,27.45c-0.06,2.22,1.73,4.06,3.95,4.07l15.61,0.07V31.29
		c0-1.8-1.46-3.26-3.26-3.26L130.37,28.03z"/>
	<path class="st8" d="M179.12,102.06c0,0-77.37-0.02-77.13,0.15"/>
	<path class="st8" d="M134.48,96.89c-0.18-0.19,46.29-0.18,46.29-0.18c1.41-7.83,7.17-17.29,15.8-20.57"/>
	<path class="st8" d="M158.33,67.09h-5.35c0,0-2.06,0-2.06,1.64"/>
</g>
</svg>
