<?xml version="1.0" encoding="utf-8"?>
<!-- Generator: Adobe Illustrator 24.0.3, SVG Export Plug-In . SVG Version: 6.00 Build 0)  -->
<svg version="1.1" id="Layer_1" xmlns="http://www.w3.org/2000/svg" xmlns:xlink="http://www.w3.org/1999/xlink" x="0px" y="0px"
	 viewBox="0 0 216 216" style="enable-background:new 0 0 216 216;" xml:space="preserve">
<style type="text/css">
	.st0{fill:url(#SVGID_1_);}
	.st1{fill:#EFEAE1;}
	.st2{fill:#DBCEAD;}
	.st3{fill:url(#SVGID_2_);}
	.st4{fill:none;stroke:#737F82;stroke-width:2;stroke-linecap:round;stroke-miterlimit:10;}
</style>
<linearGradient id="SVGID_1_" gradientUnits="userSpaceOnUse" x1="53.7738" y1="123.739" x2="162.4778" y2="123.739">
	<stop  offset="0" style="stop-color:#EFEAE1"/>
	<stop  offset="1" style="stop-color:#DBCEAD"/>
</linearGradient>
<polygon class="st0" points="145.37,204.03 70.33,204.03 53.77,43.45 162.48,43.45 "/>
<path class="st1" d="M158.88,43.45H57.37c-4.58,0-8.29-3.71-8.29-8.29v-3.84c0-4.58,3.71-8.29,8.29-8.29h101.51
	c4.58,0,8.29,3.71,8.29,8.29v3.84C167.17,39.74,163.46,43.45,158.88,43.45z"/>
<path class="st2" d="M143.91,12H72.16c-5.03,0-9.1,4.07-9.1,9.1v1.94h89.94V21.1C153.01,16.07,148.93,12,143.91,12z"/>
<linearGradient id="SVGID_2_" gradientUnits="userSpaceOnUse" x1="22.4132" y1="128.8431" x2="128.1034" y2="128.8431">
	<stop  offset="0" style="stop-color:#737F82"/>
	<stop  offset="0.576" style="stop-color:#3D5860"/>
	<stop  offset="1" style="stop-color:#1A3F49"/>
</linearGradient>
<path class="st3" d="M148.56,169.81H66.92c-1.68,0-3.09-1.27-3.27-2.94l-8.19-75.36c-0.21-1.95,1.31-3.65,3.27-3.65h99.11
	c1.98,0,3.51,1.73,3.27,3.69l-9.28,75.36C151.62,168.57,150.22,169.81,148.56,169.81z"/>
<line class="st4" x1="150.8" y1="100.56" x2="144.73" y2="162.64"/>
<line class="st4" x1="140.31" y1="114.63" x2="137" y2="162.64"/>
<line class="st4" x1="129.83" y1="132.84" x2="128.17" y2="162.64"/>
</svg>
