<?xml version="1.0" encoding="utf-8"?>
<!-- Generator: Adobe Illustrator 24.0.3, SVG Export Plug-In . SVG Version: 6.00 Build 0)  -->
<svg version="1.1" id="Layer_1" xmlns="http://www.w3.org/2000/svg" xmlns:xlink="http://www.w3.org/1999/xlink" x="0px" y="0px"
	 viewBox="0 0 216 216" style="enable-background:new 0 0 216 216;" xml:space="preserve">
<style type="text/css">
	.st0{fill:none;stroke:#EFEAE1;stroke-width:7;stroke-linecap:round;stroke-linejoin:round;stroke-miterlimit:10;}
</style>
<path class="st0" d="M95.53,174.92c7.63-4.4,6.1-16.25,0.9-23.36c-5.2-7.11-13-12.48-16.23-20.68c-4.45-11.28,1.22-24.04,8.59-33.67
	c7.37-9.63,16.69-18.14,21.09-29.43c4.03-10.34,3.07-23.04-4.25-31.39c-7.32-8.34-21.41-10.57-29.84-3.34s-7.16,23.33,3.04,27.72"/>
<path class="st0" d="M112.67,161.94c6.14-8.58,3.7-20.5-0.22-30.3s-9.17-19.79-7.88-30.26c1.29-10.47,13.29-20.13,22.24-14.53
	c7.31,4.58,7.16,15.34,4.55,23.57"/>
</svg>
