<?xml version="1.0" encoding="utf-8"?>
<!-- Generator: Adobe Illustrator 24.0.3, SVG Export Plug-In . SVG Version: 6.00 Build 0)  -->
<svg version="1.1" id="Layer_1" xmlns="http://www.w3.org/2000/svg" xmlns:xlink="http://www.w3.org/1999/xlink" x="0px" y="0px"
	 viewBox="0 0 216 216" style="enable-background:new 0 0 216 216;" xml:space="preserve">
<style type="text/css">
	.st0{fill:#CC6A19;}
	.st1{fill:#F7C331;}
	.st2{fill:#737F82;}
	.st3{fill:none;stroke:#FFFFFF;stroke-linecap:round;stroke-miterlimit:10;}
</style>
<path class="st0" d="M169.16,50.21c-2.25-3.29-3.54-7.71-1.69-11.23c0.77-1.47,2.2-2.72,3.86-2.76c1.47-0.03,2.83,0.91,3.69,2.12
	s1.29,2.64,1.72,4.05c1.16-2.76,2.38-5.61,4.63-7.58s5.83-2.76,8.23-0.98c2.18,1.62,2.66,4.81,1.86,7.4s-2.62,4.73-4.39,6.78
	c-3.33,3.86-6.66,7.72-9.99,11.59C177.08,59.6,171.41,53.5,169.16,50.21z"/>
<path class="st0" d="M91.43,137.33c2.25-3.29,3.54-7.71,1.69-11.23c-0.77-1.47-2.2-2.72-3.86-2.76c-1.47-0.03-2.83,0.91-3.69,2.12
	c-0.85,1.2-1.29,2.64-1.72,4.05c-1.16-2.76-2.38-5.61-4.63-7.58s-5.83-2.76-8.23-0.98c-2.18,1.62-2.66,4.81-1.86,7.4
	c0.8,2.59,2.62,4.73,4.39,6.78c3.33,3.86,6.66,7.72,9.99,11.59C83.52,146.72,89.19,140.62,91.43,137.33z"/>
<path class="st1" d="M126.37,117.81c-1.4-1.17-2.56-2.72-2.95-4.5c-0.22-1.02-0.15-2.19,0.55-2.97c0.22-0.25,0.49-0.44,0.79-0.6
	c1.39-0.74,2.67-0.57,4.05,0.2s2.01,1.56,2.76,2.95c0.23-0.94,0.56-1.61,1.22-2.31c0.73-0.78,2.73-1.07,3.74-0.73
	c1.01,0.35,1.78,1.48,1.88,2.54c0.12,1.28-0.64,2.48-1.47,3.46c-1.68,1.99-3.78,3.62-6.13,4.76
	C130.8,120.61,127.77,118.98,126.37,117.81z"/>
<path class="st1" d="M160.76,78.14c2.11-1.77,3.86-4.1,4.45-6.79c0.34-1.54,0.23-3.3-0.83-4.47c-0.33-0.37-0.75-0.66-1.19-0.9
	c-2.09-1.12-4.03-0.85-6.11,0.29s-3.04,2.36-4.17,4.44c-0.34-1.42-0.84-2.43-1.84-3.49c-1.11-1.17-4.12-1.62-5.64-1.1
	s-2.68,2.23-2.83,3.84c-0.18,1.94,0.97,3.74,2.22,5.23c2.53,3,5.7,5.47,9.24,7.18C154.07,82.37,158.65,79.91,160.76,78.14z"/>
<path class="st2" d="M139.42,55.23c-1.86-1.34-3.48-3.02-4.75-4.92c-0.7-1.05-1.32-2.25-1.21-3.51s1.25-2.48,2.5-2.26
	c0.49,0.09,0.91,0.37,1.29,0.69c0.92,0.78,1.63,1.79,2.04,2.92c0.6-1.43,1.41-2.88,2.77-3.62c1.36-0.75,3.37-0.48,4.07,0.9
	c0.42,0.83,0.29,1.85-0.12,2.69c-0.41,0.83-1.06,1.52-1.71,2.19c-1.49,1.55-3.36,3.38-4.84,4.93L139.42,55.23z"/>
<path class="st2" d="M136.68,96.81c1.77-1.28,3.31-2.87,4.53-4.69c0.67-1,1.26-2.15,1.15-3.34c-0.11-1.2-1.19-2.37-2.38-2.15
	c-0.46,0.08-0.87,0.36-1.23,0.66c-0.87,0.74-1.55,1.7-1.95,2.78c-0.57-1.36-1.35-2.74-2.64-3.45s-3.21-0.46-3.88,0.86
	c-0.4,0.79-0.28,1.76,0.11,2.56c0.39,0.79,1.01,1.45,1.63,2.08c1.42,1.47,3.2,3.22,4.61,4.69L136.68,96.81z"/>
<path class="st1" d="M57.98,170.29c-0.19-1.13-0.39-2.28-0.94-3.29s-1.51-1.86-2.65-1.97c-1.82-0.17-3.31,1.63-3.58,3.43
	c-0.29,1.88,0.37,3.81,1.42,5.4s2.47,2.9,3.87,4.19c0.13,0.12,0.27,0.24,0.44,0.27c0.16,0.03,0.33-0.04,0.48-0.1
	c1.61-0.67,3.16-1.55,4.4-2.78s2.15-2.84,2.33-4.57c0.08-0.79,0.01-1.62-0.35-2.32c-0.36-0.71-1.04-1.28-1.83-1.38
	c-0.78-0.1-1.56,0.26-2.14,0.79c-0.58,0.53-1.03,1.66-1.43,2.33"/>
<path class="st2" d="M90.14,103.83c0.29-1.7,0.59-3.44,1.42-4.96s2.27-2.81,3.99-2.96c2.74-0.25,4.99,2.45,5.41,5.17
	c0.43,2.84-0.56,5.75-2.14,8.15s-3.72,4.37-5.84,6.31c-0.19,0.18-0.41,0.37-0.67,0.41c-0.25,0.04-0.5-0.05-0.73-0.15
	c-2.43-1.01-4.77-2.34-6.63-4.19c-1.87-1.86-3.24-4.28-3.51-6.9c-0.12-1.19-0.01-2.44,0.53-3.5c0.54-1.07,1.57-1.93,2.76-2.08
	c1.17-0.15,2.35,0.39,3.23,1.18c0.88,0.79,1.55,2.51,2.16,3.52"/>
<path class="st0" d="M44.38,154.09c-7.95-3.51-12.55-9.47-12.55-18.16c0-1.43,0.44-2.65,1.08-3.7c1.08-1.79,4.22-2.46,5.85-1.67
	c1.64,0.79,3.33,2.67,4.3,4.42c1.07,1.94,1.08,3.11,1.38,4.91c1.06-2.17,2.43-4.41,4.68-5.28c1.62-0.63,3.56-0.41,4.97,0.61
	s2.23,2.81,2.04,4.54c-0.24,2.15-2.71,5.52-4.24,7.06C48.84,149.88,47.44,151.01,44.38,154.09L44.38,154.09z"/>
<path class="st2" d="M158.08,120.46c7.95-3.51,12.55-9.47,12.55-18.16c0-1.43-0.44-2.65-1.08-3.7c-1.08-1.79-4.22-2.46-5.85-1.67
	c-1.64,0.79-3.33,2.67-4.3,4.42c-1.07,1.94-1.08,3.11-1.38,4.91c-1.06-2.17-2.43-4.41-4.68-5.28c-1.62-0.63-3.56-0.41-4.97,0.61
	c-1.41,1.02-2.23,2.81-2.04,4.54c0.24,2.15,2.71,5.52,4.24,7.06C153.61,116.25,155.01,117.38,158.08,120.46L158.08,120.46z"/>
<line class="st3" x1="139.99" y1="127.45" x2="175.69" y2="91.75"/>
<line class="st3" x1="132.39" y1="144.54" x2="168.09" y2="108.84"/>
</svg>
