<?xml version="1.0" encoding="utf-8"?>
<!-- Generator: Adobe Illustrator 24.0.3, SVG Export Plug-In . SVG Version: 6.00 Build 0)  -->
<svg version="1.1" id="Layer_1" xmlns="http://www.w3.org/2000/svg" xmlns:xlink="http://www.w3.org/1999/xlink" x="0px" y="0px"
	 viewBox="0 0 216 216" style="enable-background:new 0 0 216 216;" xml:space="preserve">
<style type="text/css">
	.st0{fill:url(#SVGID_1_);}
	.st1{fill:none;stroke:#737F82;stroke-width:2;stroke-linecap:round;stroke-linejoin:round;stroke-miterlimit:10;}
	.st2{fill:none;stroke:#737F82;stroke-width:2;stroke-miterlimit:10;}
	.st3{fill:none;stroke:#0B1E23;stroke-miterlimit:10;}
	.st4{fill:url(#SVGID_2_);}
</style>
<linearGradient id="SVGID_1_" gradientUnits="userSpaceOnUse" x1="152.0121" y1="-294.094" x2="181.16" y2="-109.9324">
	<stop  offset="0" style="stop-color:#F7C331"/>
	<stop  offset="1" style="stop-color:#DAE4E5"/>
</linearGradient>
<path class="st0" d="M258.5-192.16L258.5-192.16c-26.56,15.09-55.58,25.44-85.74,30.26c-2.29,0.37-4.58,0.72-6.87,1.05
	c-27.68,4.04-55.9,2.48-82.99-4.5l0,0l-10.86-62.58l55.81-25.37c0.19-0.05,0.38-0.1,0.57-0.15c26.35-7.13,53.78-9.42,80.98-7.13
	l38.88,3.27L258.5-192.16z"/>
<path class="st1" d="M248.28-257.29c13.17-7.05,25.75-21.07,40.11-16.97c12.16,3.48,21.52,13.47,27.66,24.53
	c4.37,7.88,7.14,18.48,1.26,25.31c-3.52,4.09-9.17,5.54-13.62,8.6c-6.42,4.42-9.93,11.87-15.01,17.78
	c-7.75,9.02-18.29,5.94-30.18,5.88"/>
<path class="st1" d="M72.04-227.92c-7.85-8.97-24.14-20.35-34.94-15.32c-10.8,5.03-18.24,15.74-21.38,27.24
	c-0.96,3.52-1.57,7.21-0.93,10.8c1.32,7.33,7.57,12.98,9.17,20.26c1.85,8.43-2.68,18.19,2.06,25.4c1.56,2.37,3.95,4.08,6.41,5.5
	c14.95,8.67,35.83-2.12,50.47-11.3"/>
<path class="st2" d="M86.73-199.19l68.29-7.41c8.25-0.9,16.46-2.12,24.62-3.68l62.26-11.89"/>
<path class="st2" d="M95.03-180.03l58.2,1.62c14.34-0.23,28.58-2.48,42.29-6.69l52.12-18.56"/>
<path class="st2" d="M88.01-218.34l66.39-17.43c5.12-1.15,10.31-1.92,15.54-2.31l68.77-2.6"/>
<path class="st3" d="M-202.23,82.9h-50.07c-6.6,0-12-5.4-12-12V-41.11c0-6.6,5.4-12,12-12h50.07c6.6,0,12,5.4,12,12V70.9
	C-190.23,77.5-195.63,82.9-202.23,82.9z"/>
<path class="st3" d="M-211.3-53.11h-31.93v-12.26c0-6.6,5.4-12,12-12h7.93c6.6,0,12,5.4,12,12V-53.11z"/>
<rect x="-231.74" y="-91.42" class="st3" width="8.94" height="14.05"/>
<polygon class="st3" points="-194.06,54.17 -230.2,54.17 -260.47,54.17 -260.47,-13.52 -228.76,-13.52 -194.06,-13.52 "/>
<path class="st3" d="M-251.18-90.45l-1.83,0.71c-1.1,0.42-2.06-0.88-1.33-1.8l1.69-2.15c0.26-0.33,0.56-0.64,0.89-0.89
	c2.24-1.67,4.97-2.58,7.78-2.58h26.62v5.75h-28.58C-247.74-91.42-249.51-91.09-251.18-90.45z"/>
<polygon class="st3" points="-211.62,10.65 -220.78,10.65 -220.78,1.49 -233.75,1.49 -233.75,10.65 -242.91,10.65 -242.91,23.62 
	-233.75,23.62 -233.75,32.78 -220.78,32.78 -220.78,23.62 -211.62,23.62 "/>
<linearGradient id="SVGID_2_" gradientUnits="userSpaceOnUse" x1="111.561" y1="150.5867" x2="87.8326" y2="27.3871">
	<stop  offset="0" style="stop-color:#CC6A19"/>
	<stop  offset="0.1005" style="stop-color:#CD6F20"/>
	<stop  offset="0.2472" style="stop-color:#CF7C34"/>
	<stop  offset="0.4224" style="stop-color:#D29254"/>
	<stop  offset="0.6176" style="stop-color:#D6AF80"/>
	<stop  offset="0.7908" style="stop-color:#DBCEAD"/>
</linearGradient>
<path class="st4" d="M167.17,127.59L167.17,127.59c-17.87,10.15-37.4,17.12-57.69,20.36c-1.54,0.25-3.08,0.48-4.62,0.71
	c-18.63,2.72-37.61,1.67-55.84-3.03l0,0l-7.3-42.11l37.55-17.07c0.13-0.03,0.25-0.07,0.38-0.1c17.73-4.8,36.19-6.34,54.49-4.8
	l26.16,2.2L167.17,127.59z"/>
<path class="st1" d="M160.29,83.76c8.86-4.75,17.32-14.18,26.99-11.42c8.18,2.34,14.48,9.07,18.61,16.51
	c2.94,5.3,4.81,12.44,0.85,17.03c-2.37,2.75-6.17,3.73-9.16,5.79c-4.32,2.97-6.68,7.99-10.1,11.96c-5.22,6.07-12.31,4-20.31,3.96"/>
<path class="st1" d="M41.7,103.53c-5.28-6.03-16.24-13.69-23.51-10.31C10.92,96.6,5.92,103.81,3.8,111.55
	c-0.65,2.37-1.06,4.85-0.62,7.27c0.89,4.94,5.09,8.74,6.17,13.63c1.25,5.67-1.8,12.24,1.39,17.09c1.05,1.6,2.66,2.74,4.31,3.7
	c10.06,5.84,24.11-1.43,33.96-7.6"/>
<path class="st1" d="M51.59,122.86l45.95-4.99c5.55-0.6,11.08-1.43,16.57-2.48l41.89-8"/>
<path class="st1" d="M57.17,135.75l39.16,1.09c9.65-0.15,19.23-1.67,28.46-4.5l35.07-12.49"/>
<path class="st1" d="M52.44,109.97l44.67-11.73c3.44-0.77,6.94-1.29,10.46-1.56l46.28-1.75"/>
</svg>
