<?xml version="1.0" encoding="utf-8"?>
<!-- Generator: Adobe Illustrator 24.0.3, SVG Export Plug-In . SVG Version: 6.00 Build 0)  -->
<svg version="1.1" id="Layer_1" xmlns="http://www.w3.org/2000/svg" xmlns:xlink="http://www.w3.org/1999/xlink" x="0px" y="0px"
	 viewBox="0 0 216 216" style="enable-background:new 0 0 216 216;" xml:space="preserve">
<style type="text/css">
	.st0{fill:url(#SVGID_1_);}
	.st1{fill:none;stroke:#737F82;stroke-width:4;stroke-linecap:round;stroke-linejoin:round;stroke-miterlimit:10;}
	.st2{fill:none;stroke:#737F82;stroke-width:4;stroke-miterlimit:10;}
	.st3{fill:url(#SVGID_2_);}
	.st4{fill:url(#SVGID_3_);}
	.st5{fill:url(#SVGID_4_);}
	.st6{fill:url(#SVGID_5_);}
	.st7{fill:url(#SVGID_6_);}
	.st8{fill:#F7C331;}
</style>
<linearGradient id="SVGID_1_" gradientUnits="userSpaceOnUse" x1="152.0121" y1="-294.094" x2="181.16" y2="-109.9324">
	<stop  offset="0" style="stop-color:#F7C331"/>
	<stop  offset="1" style="stop-color:#DAE4E5"/>
</linearGradient>
<path class="st0" d="M258.5-192.16L258.5-192.16c-26.56,15.09-55.58,25.44-85.74,30.26c-2.29,0.37-4.58,0.72-6.87,1.05
	c-27.68,4.04-55.9,2.48-82.99-4.5l0,0l-10.86-62.58l55.81-25.37c0.19-0.05,0.38-0.1,0.57-0.15c26.35-7.13,53.78-9.42,80.98-7.13
	l38.88,3.27L258.5-192.16z"/>
<path class="st1" d="M248.28-257.29c13.17-7.05,25.75-21.07,40.11-16.97c12.16,3.48,21.52,13.47,27.66,24.53
	c4.37,7.88,7.14,18.48,1.26,25.31c-3.52,4.09-9.17,5.54-13.62,8.6c-6.42,4.42-9.93,11.87-15.01,17.78
	c-7.75,9.02-18.29,5.94-30.18,5.88"/>
<path class="st1" d="M72.04-227.92c-7.85-8.97-24.14-20.35-34.94-15.32c-10.8,5.03-18.24,15.74-21.38,27.24
	c-0.96,3.52-1.57,7.21-0.93,10.8c1.32,7.33,7.57,12.98,9.17,20.26c1.85,8.43-2.68,18.19,2.06,25.4c1.56,2.37,3.95,4.08,6.41,5.5
	c14.95,8.67,35.83-2.12,50.47-11.3"/>
<path class="st2" d="M86.73-199.19l68.29-7.41c8.25-0.9,16.46-2.12,24.62-3.68l62.26-11.89"/>
<path class="st2" d="M95.03-180.03l58.2,1.62c14.34-0.23,28.58-2.48,42.29-6.69l52.12-18.56"/>
<path class="st2" d="M88.01-218.34l66.39-17.43c5.12-1.15,10.31-1.92,15.54-2.31l68.77-2.6"/>
<linearGradient id="SVGID_2_" gradientUnits="userSpaceOnUse" x1="127.7793" y1="131.897" x2="53.7085" y2="131.897">
	<stop  offset="0" style="stop-color:#737F82"/>
	<stop  offset="0.5008" style="stop-color:#DAE4E5"/>
</linearGradient>
<path class="st3" d="M126.77,199.9H76.7c-6.6,0-12-5.4-12-12V75.89c0-6.6,5.4-12,12-12h50.07c6.6,0,12,5.4,12,12V187.9
	C138.77,194.5,133.37,199.9,126.77,199.9z"/>
<linearGradient id="SVGID_3_" gradientUnits="userSpaceOnUse" x1="138.9488" y1="51.7601" x2="107.0217" y2="51.7601">
	<stop  offset="0" style="stop-color:#737F82"/>
	<stop  offset="1" style="stop-color:#DAE4E5"/>
</linearGradient>
<path class="st4" d="M117.7,63.89H85.77V51.63c0-6.6,5.4-12,12-12h7.93c6.6,0,12,5.4,12,12V63.89z"/>
<linearGradient id="SVGID_4_" gradientUnits="userSpaceOnUse" x1="97.2648" y1="32.6038" x2="106.2043" y2="32.6038">
	<stop  offset="0" style="stop-color:#737F82"/>
	<stop  offset="1" style="stop-color:#DAE4E5"/>
</linearGradient>
<rect x="97.26" y="25.58" class="st5" width="8.94" height="14.05"/>
<linearGradient id="SVGID_5_" gradientUnits="userSpaceOnUse" x1="68.5304" y1="137.3246" x2="134.9387" y2="137.3246">
	<stop  offset="0" style="stop-color:#737F82"/>
	<stop  offset="1" style="stop-color:#1A3F49"/>
</linearGradient>
<polygon class="st6" points="134.94,171.17 98.8,171.17 68.53,171.17 68.53,103.48 100.24,103.48 134.94,103.48 "/>
<linearGradient id="SVGID_6_" gradientUnits="userSpaceOnUse" x1="98.8557" y1="42.5805" x2="88.1727" y2="6.913">
	<stop  offset="0" style="stop-color:#737F82"/>
	<stop  offset="1" style="stop-color:#DAE4E5"/>
</linearGradient>
<path class="st7" d="M77.82,26.55l-1.83,0.71c-1.1,0.42-2.06-0.88-1.33-1.8l1.69-2.15c0.26-0.33,0.56-0.64,0.89-0.89
	c2.24-1.67,4.97-2.58,7.78-2.58h26.62v5.75H83.05C81.26,25.58,79.49,25.91,77.82,26.55z"/>
<polygon class="st8" points="117.38,127.65 108.22,127.65 108.22,118.49 95.25,118.49 95.25,127.65 86.09,127.65 86.09,140.62 
	95.25,140.62 95.25,149.78 108.22,149.78 108.22,140.62 117.38,140.62 "/>
</svg>
